<svg xmlns="http://www.w3.org/2000/svg" viewBox="0 0 108 108">
  <!-- Adaptive icon foreground: 108dp with safe zone 66dp centered (18dp inset) -->
  <!-- Sun circle -->
  <circle cx="54" cy="38" r="13.5" fill="white"/>
  <!-- Sun rays -->
  <g stroke="white" stroke-width="2.1" stroke-linecap="round">
    <line x1="54" y1="19.1" x2="54" y2="14.4"/>
    <line x1="54" y1="56.9" x2="54" y2="61.6"/>
    <line x1="35.1" y1="38" x2="30.4" y2="38"/>
    <line x1="72.9" y1="38" x2="77.6" y2="38"/>
    <line x1="40.5" y1="24.5" x2="37.1" y2="21.1"/>
    <line x1="67.5" y1="51.5" x2="70.9" y2="54.9"/>
    <line x1="67.5" y1="24.5" x2="70.9" y2="21.1"/>
    <line x1="40.5" y1="51.5" x2="37.1" y2="54.9"/>
  </g>
  <!-- Solar panel -->
  <rect x="33.7" y="66.1" width="40.6" height="21.1" rx="1.7" fill="#5a3d0a" stroke="#5a3d0a" stroke-width="0.8"/>
  <line x1="43.8" y1="66.1" x2="43.8" y2="87.2" stroke="white" stroke-width="0.4" opacity="0.5"/>
  <line x1="54" y1="66.1" x2="54" y2="87.2" stroke="white" stroke-width="0.4" opacity="0.5"/>
  <line x1="64.2" y1="66.1" x2="64.2" y2="87.2" stroke="white" stroke-width="0.4" opacity="0.5"/>
  <line x1="33.7" y1="73.1" x2="74.3" y2="73.1" stroke="white" stroke-width="0.4" opacity="0.5"/>
  <line x1="33.7" y1="80.2" x2="74.3" y2="80.2" stroke="white" stroke-width="0.4" opacity="0.5"/>
  <!-- Connection line -->
  <line x1="54" y1="61.6" x2="54" y2="66.1" stroke="white" stroke-width="0.8" stroke-dasharray="1.7,1.3" opacity="0.6"/>
</svg>
